HIERARCHY
ROOT Hips
{
	OFFSET -0.001795 -0.223333 0.028219
	CHANNELS 6 Xposition Yposition Zposition Zrotation Yrotation Xrotation
	JOINT LeftUpLeg
	{
		OFFSET 0.069520 -0.091406 -0.006815
		CHANNELS 3 Zrotation Yrotation Xrotation
		JOINT LeftLeg
		{
			OFFSET 0.034277 -0.375199 -0.004496
			CHANNELS 3 Zrotation Yrotation Xrotation
			JOINT LeftFoot
			{
				OFFSET -0.013596 -0.397961 -0.043693
				CHANNELS 3 Zrotation Yrotation Xrotation
				JOINT LeftToe
				{
					OFFSET 0.026358 -0.055791 0.119288
					CHANNELS 3 Zrotation Yrotation Xrotation
					End Site
					{
						OFFSET 0.000000 0.000000 0.000000
					}
				}
			}
		}
	}
	JOINT RightUpLeg
	{
		OFFSET -0.067670 -0.090522 -0.004320
		CHANNELS 3 Zrotation Yrotation Xrotation
		JOINT RightLeg
		{
			OFFSET -0.038290 -0.382569 -0.008850
			CHANNELS 3 Zrotation Yrotation Xrotation
			JOINT RightFoot
			{
				OFFSET 0.015774 -0.398415 -0.042312
				CHANNELS 3 Zrotation Yrotation Xrotation
				JOINT RightToe
				{
					OFFSET -0.025372 -0.048144 0.123348
					CHANNELS 3 Zrotation Yrotation Xrotation
					End Site
					{
						OFFSET 0.000000 0.000000 0.000000
					}
				}
			}
		}
	}
	JOINT Spine
	{
		OFFSET -0.002533 0.108963 -0.026696
		CHANNELS 3 Zrotation Yrotation Xrotation
		JOINT Spine1
		{
			OFFSET 0.005487 0.135180 0.001092
			CHANNELS 3 Zrotation Yrotation Xrotation
			JOINT Spine2
			{
				OFFSET 0.001457 0.052922 0.025425
				CHANNELS 3 Zrotation Yrotation Xrotation
				JOINT Neck
				{
					OFFSET -0.002778 0.213870 -0.042857
					CHANNELS 3 Zrotation Yrotation Xrotation
					JOINT Head
					{
						OFFSET 0.005152 0.064970 0.051349
						CHANNELS 3 Zrotation Yrotation Xrotation
						End Site
						{
							OFFSET 0.000000 0.000000 0.000000
						}
					}
				}
				JOINT LeftShoulder
				{
					OFFSET 0.078845 0.121749 -0.034090
					CHANNELS 3 Zrotation Yrotation Xrotation
					JOINT LeftArm
					{
						OFFSET 0.090977 0.030469 -0.008868
						CHANNELS 3 Zrotation Yrotation Xrotation
						JOINT LeftForeArm
						{
							OFFSET 0.259612 -0.012772 -0.027456
							CHANNELS 3 Zrotation Yrotation Xrotation
							JOINT LeftHand
							{
								OFFSET 0.249234 0.008986 -0.001171
								CHANNELS 3 Zrotation Yrotation Xrotation
								End Site
								{
									OFFSET 0.000000 0.000000 0.000000
								}
							}
						}
					}
				}
				JOINT RightShoulder
				{
					OFFSET -0.081759 0.118833 -0.038615
					CHANNELS 3 Zrotation Yrotation Xrotation
					JOINT RightArm
					{
						OFFSET -0.096012 0.032551 -0.009143
						CHANNELS 3 Zrotation Yrotation Xrotation
						JOINT RightForeArm
						{
							OFFSET -0.253742 -0.013329 -0.021401
							CHANNELS 3 Zrotation Yrotation Xrotation
							JOINT RightHand
							{
								OFFSET -0.255298 0.007772 -0.005559
								CHANNELS 3 Zrotation Yrotation Xrotation
								End Site
								{
									OFFSET 0.000000 0.000000 0.000000
								}
							}
						}
					}
				}
			}
		}
	}
}
MOTION
Frames: 9
Frame Time: 0.050000
0.000000 0.932294 0.000000 2.136593 -3.954591 -10.848777 11.943853 0.258847 2.700333 -2.097662 0.127418 11.690803 0.005310 6.216153 19.082594 0.000000 0.000000 0.000000 -6.147749 -0.358713 11.928140 11.885763 -1.382216 3.935474 -16.158021 -33.308992 11.543529 0.000000 0.000000 0.000000 6.347621 -0.883291 11.498243 -5.100913 2.084552 -13.411700 1.772798 6.593668 25.099349 6.203256 -4.162612 -7.821252 0.000000 0.000000 0.000000 -25.630572 -12.026738 4.313602 -43.376262 2.951308 -7.666710 -26.402691 -65.098706 20.067357 0.000000 0.000000 0.000000 26.353680 6.747462 4.017420 41.209781 7.155530 -4.121241 21.370294 69.636319 19.752367 0.000000 0.000000 0.000000
0.003334 0.930907 0.002825 1.594593 -5.616638 -10.724508 12.471188 0.316682 3.569336 -2.200689 0.188818 11.771580 0.529263 6.257674 17.007667 0.000000 0.000000 0.000000 -6.013960 -0.314133 12.129837 12.021429 -1.308882 3.485919 -15.268444 -31.975135 10.552842 0.000000 0.000000 0.000000 7.171562 -0.764968 9.748100 -6.551096 2.632963 -11.945396 2.532954 5.400990 25.610916 5.786354 -4.127932 -7.252225 0.000000 0.000000 0.000000 -22.927274 -12.040055 5.033908 -45.480205 1.659252 -7.878577 -25.739404 -69.254455 21.897498 0.000000 0.000000 0.000000 25.313833 8.078712 4.105853 41.781295 6.975739 -4.045064 35.204939 76.468110 33.246571 0.000000 0.000000 0.000000
0.006300 0.930642 0.004721 1.388522 -6.346814 -10.674210 12.033435 0.338543 4.443437 -1.888412 0.134985 11.649841 1.574073 7.179857 14.442671 0.000000 0.000000 0.000000 -5.547674 -0.347010 12.268543 11.114651 -1.168292 3.263913 -14.972764 -31.497356 10.218535 0.000000 0.000000 0.000000 7.291992 -0.705001 9.069566 -5.770922 2.316936 -11.743509 1.342928 5.802817 26.439164 6.856741 -4.732573 -9.161805 0.000000 0.000000 0.000000 -22.056363 -12.773335 5.498404 -43.574764 -0.855330 -6.824726 -25.001566 -72.498373 22.671137 0.000000 0.000000 0.000000 25.323145 7.277130 3.616437 39.588156 7.726996 -3.709643 63.533397 80.892237 61.301994 0.000000 0.000000 0.000000
0.008893 0.930991 0.005953 1.684131 -7.895757 -11.359810 11.752914 0.425156 5.743181 -1.563956 0.095133 12.326149 0.846962 5.507209 12.968552 0.000000 0.000000 0.000000 -5.391453 -0.320725 12.928977 9.642750 -0.958608 3.208934 -14.281369 -30.346114 9.536490 0.000000 0.000000 0.000000 7.271286 -0.685661 9.188089 -6.368451 2.537450 -11.128140 1.090473 4.939826 26.885261 7.302766 -5.418303 -8.620063 0.000000 0.000000 0.000000 -21.435843 -13.317075 6.304553 -42.452537 -2.264499 -6.351137 -21.355941 -76.673007 21.895886 0.000000 0.000000 0.000000 24.177648 7.738749 3.278209 40.236238 9.893753 -2.945819 127.671475 82.027325 127.182110 0.000000 0.000000 0.000000
0.010898 0.931388 0.006631 1.765064 -9.074631 -11.055021 10.970742 0.469494 5.650085 -1.628422 0.145907 12.250761 2.860542 8.735652 13.557979 0.000000 0.000000 0.000000 -5.276527 -0.261238 12.137105 8.879664 -0.861020 3.813365 -13.843967 -29.574116 9.157255 0.000000 0.000000 0.000000 7.043179 -0.684316 9.304961 -5.867895 2.332139 -10.306956 0.407157 5.458676 25.691191 7.638432 -5.655402 -8.553167 0.000000 0.000000 0.000000 -20.473777 -14.841459 7.085782 -41.794068 -4.158858 -5.554738 -13.582588 -79.490593 16.419874 0.000000 0.000000 0.000000 24.290830 8.362847 3.521834 38.876140 11.688469 -2.207354 160.984941 77.406246 162.998890 0.000000 0.000000 0.000000
0.012333 0.931080 0.007355 1.580081 -11.065429 -10.808679 11.183344 0.552066 6.219399 -2.250700 0.348333 11.945246 4.107370 10.526364 13.445353 0.000000 0.000000 0.000000 -4.842544 -0.221554 11.278623 7.997525 -0.731625 4.608693 -13.060637 -28.207358 8.273446 0.000000 0.000000 0.000000 7.221009 -0.690454 9.403474 -6.086200 2.338147 -10.768322 0.577551 5.748243 26.001317 7.778761 -5.846514 -8.636226 0.000000 0.000000 0.000000 -20.057109 -15.265116 7.560023 -41.147345 -5.863197 -5.040018 -2.761182 -82.501114 8.103321 0.000000 0.000000 0.000000 23.441604 9.353198 3.791238 38.517463 14.392195 -1.338888 174.290972 72.610892 179.126038 0.000000 0.000000 0.000000
0.013431 0.930082 0.008593 1.862831 -12.685654 -11.034387 10.971632 0.631131 6.476562 -2.624966 0.494152 12.120793 4.991779 11.909222 14.969929 0.000000 0.000000 0.000000 -5.109886 -0.106027 10.171652 7.533691 -0.660403 6.731315 -12.525971 -27.236943 7.228857 0.000000 0.000000 0.000000 7.350121 -0.724263 9.970042 -6.841886 2.624510 -10.272335 0.497330 5.980831 25.316310 7.739308 -5.818415 -8.785181 0.000000 0.000000 0.000000 -19.644820 -16.273889 8.218432 -40.038813 -8.117189 -4.217177 30.473575 -84.858337 -21.853562 0.000000 0.000000 0.000000 22.871911 10.611944 4.241892 38.098470 16.690466 -0.523962 -178.647866 70.669036 -171.380161 0.000000 0.000000 0.000000
0.014387 0.928421 0.010725 2.154499 -14.136794 -11.419378 10.682515 0.701458 6.567832 -2.886399 0.664315 13.707313 5.522973 12.580247 14.442348 0.000000 0.000000 0.000000 -5.641861 0.021376 9.372723 7.537050 -0.624581 8.717240 -12.049880 -26.326904 6.141328 0.000000 0.000000 0.000000 8.030630 -0.774074 10.490029 -7.227858 2.726396 -10.568984 0.716774 6.496980 25.820200 7.774818 -5.636942 -10.324309 0.000000 0.000000 0.000000 -19.541237 -17.243143 8.853820 -39.797324 -9.855979 -3.746310 89.770409 -85.743225 -78.672704 0.000000 0.000000 0.000000 22.424397 11.172465 4.445195 36.607294 18.912870 0.060617 -175.706666 69.323684 -167.209253 0.000000 0.000000 0.000000
0.015140 0.926481 0.013772 2.666346 -15.269114 -12.073058 10.274020 0.760374 6.643979 -3.246065 0.881200 15.180622 6.074299 13.377802 15.079338 0.000000 0.000000 0.000000 -6.633577 0.189389 8.925001 7.965065 -0.640382 10.622796 -11.688582 -25.586580 5.137192 0.000000 0.000000 0.000000 8.914606 -0.822400 10.976059 -7.452010 2.818864 -10.240714 0.698570 6.789252 25.374638 6.921824 -4.864058 -10.998492 0.000000 0.000000 0.000000 -19.788511 -17.886453 9.314073 -39.405408 -10.748970 -3.434128 131.762558 -83.388564 -119.166674 0.000000 0.000000 0.000000 22.297481 12.120564 4.830171 35.265887 19.962166 0.376987 -172.314571 68.688100 -162.512689 0.000000 0.000000 0.000000
